<?xml version="1.0" standalone="no"?><!DOCTYPE svg PUBLIC "-//W3C//DTD SVG 1.1//EN" "http://www.w3.org/Graphics/SVG/1.1/DTD/svg11.dtd"><svg t="1706684966289" class="icon" viewBox="0 0 1024 1024" version="1.1" xmlns="http://www.w3.org/2000/svg" p-id="5097" xmlns:xlink="http://www.w3.org/1999/xlink" width="200" height="200"><path d="M238.685091 0h546.629818c82.990545 0 113.105455 8.657455 143.453091 24.855273 30.347636 16.244364 54.132364 40.029091 70.376727 70.376727 16.197818 30.347636 24.855273 60.462545 24.855273 143.453091v546.629818c0 82.990545-8.657455 113.105455-24.855273 143.453091a169.192727 169.192727 0 0 1-70.376727 70.376727c-30.347636 16.197818-60.462545 24.855273-143.453091 24.855273H238.685091c-82.990545 0-113.105455-8.657455-143.453091-24.855273a169.192727 169.192727 0 0 1-70.376727-70.376727C8.657455 898.420364 0 868.305455 0 785.314909V238.685091c0-82.990545 8.657455-113.105455 24.855273-143.453091A169.192727 169.192727 0 0 1 95.232 24.855273C125.579636 8.657455 155.694545 0 238.685091 0z" fill="#FBFBFB" p-id="5098"></path><path d="M510.138182 733.370182c142.103273 0 257.349818-115.851636 257.349818-258.699637 0-142.894545-115.246545-258.699636-257.349818-258.699636s-257.303273 115.805091-257.303273 258.699636 115.2 258.699636 257.303273 258.699637z" fill="#FFD21E" p-id="5099"></path><path d="M767.488 474.670545c0-142.894545-115.246545-258.699636-257.349818-258.699636s-257.303273 115.805091-257.303273 258.699636 115.2 258.699636 257.303273 258.699637c142.103273 0 257.349818-115.851636 257.349818-258.699637z m-544.256 0A288.768 288.768 0 0 1 366.685091 224.814545a285.602909 285.602909 0 0 1 286.952727 0 288.768 288.768 0 0 1 143.453091 249.856c0 159.325091-128.465455 288.442182-286.952727 288.442182-158.440727 0-286.906182-129.117091-286.906182-288.442182z" fill="#FF9D0B" p-id="5100"></path><path d="M593.733818 404.293818c9.495273 3.258182 13.218909 22.807273 22.760727 17.687273a37.236364 37.236364 0 0 0-6.516363-68.421818 36.910545 36.910545 0 0 0-39.424 11.915636 37.376 37.376 0 0 0-4.142546 41.146182c4.514909 8.564364 18.897455-5.352727 27.415273-2.373818l-0.093091 0.046545z m-174.359273 0c-9.495273 3.258182-13.265455 22.807273-22.760727 17.687273a37.236364 37.236364 0 0 1 6.516364-68.421818 36.910545 36.910545 0 0 1 39.424 11.915636c9.541818 11.636364 11.170909 27.834182 4.142545 41.146182-4.514909 8.564364-18.944-5.352727-27.415272-2.373818l0.09309 0.046545z" fill="#3A3B45" p-id="5101"></path><path d="M508.276364 582.888727c72.797091 0 96.302545-65.163636 96.302545-98.676363 0-17.454545-11.636364-11.915636-30.301091-2.699637-17.221818 8.564364-40.448 20.386909-65.908363 20.386909-53.248 0-96.256-51.2-96.256-17.687272 0 33.512727 23.412364 98.676364 96.256 98.676363h-0.093091z" fill="#FF323D" p-id="5102"></path><path d="M452.561455 565.853091c7.912727-16.151273 22.109091-28.253091 39.237818-33.419636 2.932364-0.930909 6.004364 4.235636 9.169454 9.541818 2.978909 5.026909 6.050909 10.193455 9.169455 10.193454 3.351273 0 6.656-5.12 9.867636-10.053818 3.304727-5.213091 6.562909-10.24 9.774546-9.309091 15.918545 5.073455 29.184 16.197818 37.003636 31.045818 27.648-21.876364 37.794909-57.623273 37.794909-79.685818 0-17.408-11.636364-11.869091-30.301091-2.653091l-1.024 0.512c-17.128727 8.564364-39.936 19.874909-64.977454 19.874909-24.994909 0-47.755636-11.310545-64.930909-19.874909-19.223273-9.588364-31.325091-15.639273-31.325091 2.141091 0 22.714182 10.845091 60.043636 40.494545 81.687273z" fill="#3A3B45" p-id="5103"></path><path d="M684.171636 439.296a24.110545 24.110545 0 0 0 24.064-24.203636 24.110545 24.110545 0 0 0-24.064-24.203637 24.110545 24.110545 0 0 0-24.064 24.203637c0 13.358545 10.752 24.203636 24.064 24.203636z m-344.343272 0a24.110545 24.110545 0 0 0 24.064-24.203636 24.110545 24.110545 0 0 0-24.064-24.203637 24.110545 24.110545 0 0 0-24.064 24.203637c0 13.358545 10.798545 24.203636 24.064 24.203636z m-49.524364 81.92a38.353455 38.353455 0 0 0-30.161455 13.870545 44.590545 44.590545 0 0 0-9.82109 28.020364c-4.654545-1.396364-9.495273-2.187636-14.382546-2.234182a39.051636 39.051636 0 0 0-29.184 12.334546 43.333818 43.333818 0 0 0-5.911273 52.130909 39.470545 39.470545 0 0 0-13.265454 20.945454 43.752727 43.752727 0 0 0 5.957818 35.374546 39.051636 39.051636 0 0 0-2.792727 37.329454c7.586909 17.268364 26.484364 30.813091 63.115636 45.428364 22.760727 9.076364 43.613091 14.894545 43.752727 14.941091 26.391273 7.354182 53.573818 11.357091 80.989091 11.915636 43.333818 0 74.379636-13.405091 92.206546-39.749818 28.765091-42.356364 24.669091-81.128727-12.567273-118.504727-20.48-20.712727-34.210909-51.2-37.003636-57.856-5.818182-19.828364-21.038545-41.844364-46.312728-41.844364a42.170182 42.170182 0 0 0-34.071272 18.338909 97.512727 97.512727 0 0 0-21.178182-21.038545 54.597818 54.597818 0 0 0-29.370182-9.448727z m0 29.789091a26.530909 26.530909 0 0 1 13.498182 4.794182c15.825455 10.146909 46.266182 62.743273 57.437091 83.223272 3.723636 6.842182 10.146909 9.774545 15.825454 9.774546 11.496727 0 20.386909-11.403636 1.117091-25.925818-28.997818-21.783273-18.850909-57.483636-5.026909-59.624728 0.605091-0.139636 1.256727-0.139636 1.768727-0.139636 12.567273 0 18.152727 21.783273 18.152728 21.783273s16.290909 41.099636 44.264727 69.259636c27.927273 28.066909 29.416727 50.594909 9.029818 80.616727-13.917091 20.48-40.494545 26.670545-67.816727 26.670546-28.206545 0-57.250909-6.702545-73.448727-10.891636-0.791273-0.232727-99.607273-28.299636-87.04-52.13091 2.048-4.002909 5.538909-5.632 9.867636-5.632 17.640727 0 49.617455 26.344727 63.488 26.344728 3.025455 0 5.166545-1.256727 6.144-4.468364 5.818182-21.224727-89.320727-30.161455-81.314909-60.834909 1.489455-5.399273 5.259636-7.586909 10.705454-7.586909 23.226182 0 75.496727 41.192727 86.434909 41.192727 0.837818 0 1.489455-0.232727 1.768728-0.744727 5.492364-8.936727 2.466909-15.173818-36.305455-38.725818-38.539636-23.505455-65.722182-37.701818-50.269091-54.551273 1.722182-1.954909 4.235636-2.839273 7.354182-2.839273 23.458909 0 78.941091 50.734545 78.941091 50.734546s14.941091 15.685818 24.064 15.685818a5.352727 5.352727 0 0 0 5.026909-2.839273c6.376727-10.891636-59.671273-61.207273-63.394909-81.966545-2.513455-14.149818 1.815273-21.224727 9.728-21.224728z" fill="#FF9D0B" p-id="5104"></path><path d="M446.370909 734.766545c20.386909-30.068364 18.897455-52.596364-9.029818-80.709818-27.973818-28.066909-44.264727-69.213091-44.264727-69.213091s-6.050909-23.831273-19.921455-21.597091c-13.824 2.234182-23.970909 37.841455 5.026909 59.624728 28.951273 21.829818-5.771636 36.631273-16.942545 16.151272-11.124364-20.48-41.611636-73.076364-57.483637-83.223272-15.732364-10.053818-26.856727-4.468364-23.179636 16.384 3.723636 20.759273 69.818182 71.074909 63.394909 81.92-6.423273 10.891636-29.090909-12.753455-29.090909-12.753455s-70.842182-64.837818-86.341818-47.941818c-15.36 16.896 11.776 31.045818 50.362182 54.551273 38.725818 23.552 41.751273 29.789091 36.305454 38.725818-5.585455 8.936727-90.949818-63.488-98.955636-32.768-8.005818 30.580364 87.133091 39.470545 81.314909 60.695273-5.911273 21.178182-67.118545-40.029091-79.546182-16.290909-12.567273 23.924364 86.295273 51.991273 87.086546 52.224 31.837091 8.378182 112.919273 25.972364 141.265454-15.77891z" fill="#FFD21E" p-id="5105"></path><path d="M733.696 521.169455c12.008727 0 22.760727 4.933818 30.161455 13.963636 6.376727 7.912727 9.821091 17.780364 9.82109 27.927273 4.654545-1.396364 9.541818-2.141091 14.429091-2.187637 11.496727 0 21.876364 4.375273 29.184 12.334546 13.498182 14.056727 15.872 35.374545 5.911273 52.130909 6.516364 5.399273 11.170909 12.753455 13.218909 20.945454a43.752727 43.752727 0 0 1-5.957818 35.374546c7.261091 11.124364 8.285091 25.227636 2.792727 37.329454-7.586909 17.268364-26.484364 30.813091-63.069091 45.428364-22.807273 9.076364-43.659636 14.894545-43.799272 14.941091a326.609455 326.609455 0 0 1-80.989091 11.915636c-43.333818 0-74.379636-13.405091-92.206546-39.749818-28.765091-42.356364-24.669091-81.128727 12.567273-118.504727 20.573091-20.712727 34.304-51.2 37.096727-57.856 5.771636-19.828364 20.945455-41.844364 46.219637-41.844364a42.170182 42.170182 0 0 1 34.071272 18.338909c7.400727-9.402182 14.661818-16.756364 21.224728-21.038545 8.657455-5.864727 18.850909-9.169455 29.323636-9.448727z m0 29.78909a26.763636 26.763636 0 0 0-13.498182 4.840728c-15.732364 10.146909-46.266182 62.743273-57.437091 83.223272a17.966545 17.966545 0 0 1-15.825454 9.774546c-11.403636 0-20.386909-11.403636-1.070546-25.925818 28.951273-21.783273 18.804364-57.483636 4.980364-59.624728a11.357091 11.357091 0 0 0-1.768727-0.139636c-12.567273 0-18.152727 21.783273-18.152728 21.783273s-16.290909 41.099636-44.218181 69.259636c-27.973818 28.066909-29.463273 50.594909-9.029819 80.616727 13.870545 20.48 40.494545 26.670545 67.770182 26.670546 28.253091 0 57.250909-6.702545 73.541818-10.891636 0.698182-0.232727 99.607273-28.299636 87.04-52.13091-2.141091-4.002909-5.538909-5.632-9.914181-5.632-17.594182 0-49.664 26.344727-63.441455 26.344728-3.118545 0-5.259636-1.256727-6.144-4.468364-5.911273-21.224727 89.227636-30.161455 81.221818-60.834909-1.396364-5.399273-5.166545-7.586909-10.705454-7.586909-23.226182 0-75.496727 41.192727-86.434909 41.192727-0.744727 0-1.396364-0.232727-1.722182-0.744727-5.492364-8.936727-2.513455-15.173818 36.165818-38.725818 38.725818-23.505455 65.861818-37.701818 50.315636-54.551273-1.675636-1.954909-4.189091-2.839273-7.261091-2.839273-23.505455 0-78.987636 50.734545-78.987636 50.734546s-14.941091 15.685818-24.017455 15.685818a5.492364 5.492364 0 0 1-5.026909-2.839273c-6.423273-10.891636 59.624727-61.207273 63.301819-81.966545 2.56-14.149818-1.768727-21.224727-9.681455-21.224728z" fill="#FF9D0B" p-id="5106"></path><path d="M577.675636 734.766545c-20.340364-30.068364-18.944-52.596364 9.029819-80.709818 27.927273-28.066909 44.218182-69.213091 44.218181-69.213091s6.050909-23.831273 20.014546-21.597091c13.730909 2.234182 23.877818 37.841455-5.073455 59.624728-28.997818 21.829818 5.771636 36.631273 16.896 16.151272 11.170909-20.48 41.704727-73.076364 57.483637-83.223272 15.732364-10.053818 26.949818-4.468364 23.179636 16.384-3.723636 20.759273-69.818182 71.074909-63.301818 81.92 6.330182 10.891636 28.997818-12.753455 28.997818-12.753455s70.935273-64.837818 86.341818-47.941818c15.36 16.896-11.682909 31.045818-50.362182 54.551273-38.725818 23.552-41.704727 29.789091-36.305454 38.725818 5.585455 8.936727 90.949818-63.488 98.955636-32.768 8.005818 30.580364-87.04 39.470545-81.221818 60.695273 5.911273 21.178182 67.025455-40.029091 79.499636-16.290909 12.567273 23.924364-86.248727 51.991273-87.04 52.224-31.930182 8.378182-113.012364 25.972364-141.312-15.77891z" fill="#FFD21E" p-id="5107"></path></svg>